<?xml version="1.0" standalone="no"?><!DOCTYPE svg PUBLIC "-//W3C//DTD SVG 1.1//EN" "http://www.w3.org/Graphics/SVG/1.1/DTD/svg11.dtd"><svg t="1560308252294" class="icon" style="" viewBox="0 0 1024 1024" version="1.1" xmlns="http://www.w3.org/2000/svg" p-id="2613" xmlns:xlink="http://www.w3.org/1999/xlink" width="36" height="36"><defs><style type="text/css"></style></defs><path d="M889.421369 751.722382c-9.893547 0-17.912604 8.020196-17.912605 17.913174 0 15.366827-8.989013 42.457884-28.728888 65.634417-15.348622 18.0224-42.070471 39.506489-82.199894 39.506489-9.894116 0-17.912604 8.019058-17.912604 17.90976 0 9.896391 8.019058 17.913173 17.912604 17.913174 96.352142 0 146.755129-91.769173 146.755129-140.964409-0.000569-9.892978-8.020196-17.912604-17.913742-17.912605z" p-id="2614" fill="#1c51dd"></path><path d="M942.250667 553.430471L473.07264 84.250169a17.917156 17.917156 0 0 0-25.335467 0l-54.755555 54.757262L260.523804 6.555307c-6.992782-6.997333-18.335289-6.994489-25.332622 0L6.618453 235.126898c-6.997333 6.997333-6.997333 18.337564-0.002275 25.334898L139.073991 392.920178l-54.7584 54.7584c-6.995058 6.994489-6.995058 18.335289 0 25.332622l469.175751 469.176889c51.9168 51.909404 120.947484 80.497778 194.37568 80.503467h0.022756c73.411129 0 142.436693-28.594062 194.360889-80.513138 107.172409-107.176391 107.172409-281.567573 0-388.747947zM247.858062 44.55424L367.2064 163.895182 163.961742 367.142684 44.616249 247.794347 247.858062 44.55424zM916.918044 916.847502c-45.159538 45.152142-105.181298 70.022258-169.028266 70.017138h-0.014791c-63.865173-0.00512-123.901156-24.870684-169.051023-70.012587L122.315662 460.343182 460.405191 122.248533l456.510578 456.51456c93.205618 93.210738 93.205618 244.875947 0.002275 338.084409z" p-id="2615" fill="#1c51dd"></path><path d="M188.993991 291.157333c4.582969 0 9.168782-1.749333 12.667449-5.248 6.994489-6.994489 6.994489-18.335289-0.002276-25.332622l-43.208248-43.205404c-6.992213-6.992213-18.33472-6.994489-25.332623 0.002275-6.994489 6.994489-6.994489 18.335289 0.002276 25.332622l43.208249 43.205405c3.496391 3.496391 8.082204 5.245724 12.665173 5.245724zM260.638151 201.597724c3.498667 3.496391 8.08448 5.245724 12.668018 5.245725 4.582969 0 9.168782-1.749333 12.667449-5.245725 6.994489-6.997333 6.994489-18.337564 0-25.334897l-43.203129-43.203129c-6.997333-6.992213-18.337564-6.992213-25.334898 0-6.995058 6.997333-6.995058 18.337564 0 25.334898l43.20256 43.203128z" p-id="2616" fill="#1c51dd"></path></svg>